<?xml version="1.0"?>
<svg xmlns="http://www.w3.org/2000/svg" xmlns:xlink="http://www.w3.org/1999/xlink" xmlns:svgjs="http://svgjs.com/svgjs" version="1.1" width="512" height="512" x="0" y="0" viewBox="0 0 480 480" style="enable-background:new 0 0 512 512" xml:space="preserve" class=""><g><script>
        (function() {
            // If GPC on, set DOM property to true if not already true
            if (true) {
                if (navigator.globalPrivacyControl) return
                Object.defineProperty(navigator, 'globalPrivacyControl', {
                    value: true,
                    enumerable: true
                })
            } else {
                // If GPC off, set DOM property prototype to false so it may be overwritten
                // with a true value by user agent or other extensions
                if (typeof navigator.globalPrivacyControl !== "undefined") return
                Object.defineProperty(Object.getPrototypeOf(navigator), 'globalPrivacyControl', {
                    value: false,
                    enumerable: true
                })
            }
            // Remove script tag after execution
            document.currentScript.parentElement.removeChild(document.currentScript)
        })()
        </script>
<g xmlns="http://www.w3.org/2000/svg">
	<g>
		<path d="M325.656,314.344L251.312,240l74.344-74.344c3.123-3.124,3.123-8.188,0-11.312l-80-80    c-3.125-3.124-8.19-3.123-11.314,0.002C232.843,75.846,232,77.879,232,80v140.688l-74.344-74.344    c-3.178-3.069-8.243-2.981-11.312,0.197c-2.994,3.1-2.994,8.015,0,11.115L228.688,240l-82.344,82.344    c-3.123,3.124-3.123,8.188,0,11.312c3.124,3.123,8.188,3.123,11.312,0L232,259.312V400c0.001,4.418,3.583,7.999,8.002,7.998    c2.121,0,4.154-0.843,5.654-2.342l80-80C328.779,322.532,328.779,317.468,325.656,314.344z M248,99.312L308.688,160L248,220.688    V99.312z M248,380.688V259.312L308.688,320L248,380.688z" fill="#ffffff" data-original="#000000" style="" class=""/>
	</g>
</g>
<g xmlns="http://www.w3.org/2000/svg">
	<g>
		<path d="M320,0H160c-39.746,0.044-71.956,32.254-72,72v336c0.044,39.746,32.254,71.956,72,72h160    c39.746-0.044,71.956-32.254,72-72V72C391.956,32.254,359.746,0.044,320,0z M376,408c-0.035,30.913-25.087,55.965-56,56H160    c-30.913-0.035-55.965-25.087-56-56V72c0.035-30.913,25.087-55.965,56-56h160c30.913,0.035,55.965,25.087,56,56V408z" fill="#ffffff" data-original="#000000" style="" class=""/>
	</g>
</g>
<g xmlns="http://www.w3.org/2000/svg">
	<g>
		<path d="M427.152,194.344l-11.32,11.312c18.938,18.98,18.938,49.708,0,68.688l11.32,11.312    C452.318,260.421,452.318,219.579,427.152,194.344z" fill="#ffffff" data-original="#000000" style="" class=""/>
	</g>
</g>
<g xmlns="http://www.w3.org/2000/svg">
	<g>
		<path d="M451.152,170.344l-11.32,11.312c32.169,32.245,32.169,84.443,0,116.688l11.32,11.312    C489.554,271.158,489.554,208.842,451.152,170.344z" fill="#ffffff" data-original="#000000" style="" class=""/>
	</g>
</g>
<g xmlns="http://www.w3.org/2000/svg">
	<g>
		<path d="M64.16,205.656l-11.312-11.312c-25.166,25.235-25.166,66.077,0,91.312l11.312-11.312    C45.231,255.36,45.231,224.64,64.16,205.656z" fill="#ffffff" data-original="#000000" style="" class=""/>
	</g>
</g>
<g xmlns="http://www.w3.org/2000/svg">
	<g>
		<path d="M40.16,181.656l-11.312-11.312c-38.402,38.498-38.402,100.814,0,139.312l11.312-11.312C8,266.096,8,213.904,40.16,181.656    z" fill="#ffffff" data-original="#000000" style="" class=""/>
	</g>
</g>
<g xmlns="http://www.w3.org/2000/svg">
</g>
<g xmlns="http://www.w3.org/2000/svg">
</g>
<g xmlns="http://www.w3.org/2000/svg">
</g>
<g xmlns="http://www.w3.org/2000/svg">
</g>
<g xmlns="http://www.w3.org/2000/svg">
</g>
<g xmlns="http://www.w3.org/2000/svg">
</g>
<g xmlns="http://www.w3.org/2000/svg">
</g>
<g xmlns="http://www.w3.org/2000/svg">
</g>
<g xmlns="http://www.w3.org/2000/svg">
</g>
<g xmlns="http://www.w3.org/2000/svg">
</g>
<g xmlns="http://www.w3.org/2000/svg">
</g>
<g xmlns="http://www.w3.org/2000/svg">
</g>
<g xmlns="http://www.w3.org/2000/svg">
</g>
<g xmlns="http://www.w3.org/2000/svg">
</g>
<g xmlns="http://www.w3.org/2000/svg">
</g>
</g></svg>
